<svg width="14" height="12" viewBox="0 0 14 12" fill="none" xmlns="http://www.w3.org/2000/svg">
<path d="M2 10.25V11.75C2 11.8229 1.97656 11.8828 1.92969 11.9297C1.88281 11.9766 1.82292 12 1.75 12H0.25C0.177083 12 0.117188 11.9766 0.0703125 11.9297C0.0234375 11.8828 0 11.8229 0 11.75V10.25C0 10.1771 0.0234375 10.1172 0.0703125 10.0703C0.117188 10.0234 0.177083 10 0.25 10H1.75C1.82292 10 1.88281 10.0234 1.92969 10.0703C1.97656 10.1172 2 10.1771 2 10.25ZM5 9.25V11.75C5 11.8229 4.97656 11.8828 4.92969 11.9297C4.88281 11.9766 4.82292 12 4.75 12H3.25C3.17708 12 3.11719 11.9766 3.07031 11.9297C3.02344 11.8828 3 11.8229 3 11.75V9.25C3 9.17708 3.02344 9.11719 3.07031 9.07031C3.11719 9.02344 3.17708 9 3.25 9H4.75C4.82292 9 4.88281 9.02344 4.92969 9.07031C4.97656 9.11719 5 9.17708 5 9.25ZM8 7.25V11.75C8 11.8229 7.97656 11.8828 7.92969 11.9297C7.88281 11.9766 7.82292 12 7.75 12H6.25C6.17708 12 6.11719 11.9766 6.07031 11.9297C6.02344 11.8828 6 11.8229 6 11.75V7.25C6 7.17708 6.02344 7.11719 6.07031 7.07031C6.11719 7.02344 6.17708 7 6.25 7H7.75C7.82292 7 7.88281 7.02344 7.92969 7.07031C7.97656 7.11719 8 7.17708 8 7.25ZM11 4.25V11.75C11 11.8229 10.9766 11.8828 10.9297 11.9297C10.8828 11.9766 10.8229 12 10.75 12H9.25C9.17708 12 9.11719 11.9766 9.07031 11.9297C9.02344 11.8828 9 11.8229 9 11.75V4.25C9 4.17708 9.02344 4.11719 9.07031 4.07031C9.11719 4.02344 9.17708 4 9.25 4H10.75C10.8229 4 10.8828 4.02344 10.9297 4.07031C10.9766 4.11719 11 4.17708 11 4.25ZM14 0.25V11.75C14 11.8229 13.9766 11.8828 13.9297 11.9297C13.8828 11.9766 13.8229 12 13.75 12H12.25C12.1771 12 12.1172 11.9766 12.0703 11.9297C12.0234 11.8828 12 11.8229 12 11.75V0.25C12 0.177083 12.0234 0.117188 12.0703 0.0703125C12.1172 0.0234375 12.1771 0 12.25 0H13.75C13.8229 0 13.8828 0.0234375 13.9297 0.0703125C13.9766 0.117188 14 0.177083 14 0.25Z" fill="white"/>
</svg>
