<svg width="16" height="11" viewBox="0 0 16 11" fill="none" xmlns="http://www.w3.org/2000/svg">
<path d="M14.8571 5.5C13.9524 4.09524 12.8185 3.04464 11.4554 2.34821C11.8185 2.96726 12 3.63691 12 4.35714C12 5.45833 11.6086 6.4003 10.8259 7.18304C10.0432 7.96577 9.10119 8.35714 8 8.35714C6.89881 8.35714 5.95685 7.96577 5.17411 7.18304C4.39137 6.4003 4 5.45833 4 4.35714C4 3.63691 4.18155 2.96726 4.54464 2.34821C3.18155 3.04464 2.04762 4.09524 1.14286 5.5C1.93452 6.72024 2.92708 7.69196 4.12054 8.41518C5.31399 9.13839 6.60714 9.5 8 9.5C9.39286 9.5 10.686 9.13839 11.8795 8.41518C13.0729 7.69196 14.0655 6.72024 14.8571 5.5ZM8.42857 2.07143C8.42857 1.95238 8.3869 1.85119 8.30357 1.76786C8.22024 1.68452 8.11905 1.64286 8 1.64286C7.25595 1.64286 6.61756 1.90923 6.08482 2.44196C5.55208 2.9747 5.28571 3.6131 5.28571 4.35714C5.28571 4.47619 5.32738 4.57738 5.41071 4.66071C5.49405 4.74405 5.59524 4.78571 5.71429 4.78571C5.83333 4.78571 5.93452 4.74405 6.01786 4.66071C6.10119 4.57738 6.14286 4.47619 6.14286 4.35714C6.14286 3.84524 6.32441 3.40774 6.6875 3.04464C7.0506 2.68155 7.4881 2.5 8 2.5C8.11905 2.5 8.22024 2.45833 8.30357 2.375C8.3869 2.29167 8.42857 2.19048 8.42857 2.07143ZM16 5.5C16 5.70238 15.9405 5.90774 15.8214 6.11607C14.9881 7.48512 13.8676 8.58185 12.4598 9.40625C11.0521 10.2307 9.56548 10.6429 8 10.6429C6.43452 10.6429 4.94792 10.2292 3.54018 9.40179C2.13244 8.5744 1.0119 7.47917 0.178571 6.11607C0.0595238 5.90774 0 5.70238 0 5.5C0 5.29762 0.0595238 5.09226 0.178571 4.88393C1.0119 3.52083 2.13244 2.4256 3.54018 1.59821C4.94792 0.770834 6.43452 0.357143 8 0.357143C9.56548 0.357143 11.0521 0.770834 12.4598 1.59821C13.8676 2.4256 14.9881 3.52083 15.8214 4.88393C15.9405 5.09226 16 5.29762 16 5.5Z" fill="#ADADAD"/>
</svg>
