<svg width="14" height="10" viewBox="0 0 14 10" fill="none" xmlns="http://www.w3.org/2000/svg">
<path d="M7 9.94399C6.90496 9.94399 6.68398 9.76935 6.33707 9.42006C5.99016 9.07077 5.8167 8.84861 5.8167 8.75356C5.8167 8.60149 5.96521 8.47318 6.26222 8.36864C6.55923 8.26409 6.80516 8.21181 7 8.21181C7.19484 8.21181 7.44077 8.26409 7.73778 8.36864C8.03479 8.47318 8.1833 8.60149 8.1833 8.75356C8.1833 8.84861 8.00984 9.07077 7.66293 9.42006C7.31602 9.76935 7.09504 9.94399 7 9.94399ZM8.92464 8.01222C8.91514 8.01222 8.8201 7.95282 8.63951 7.83401C8.45893 7.71521 8.21775 7.5964 7.91599 7.4776C7.61422 7.35879 7.30889 7.29939 7 7.29939C6.69111 7.29939 6.38578 7.35879 6.08401 7.4776C5.78225 7.5964 5.54226 7.71521 5.36405 7.83401C5.18584 7.95282 5.08961 8.01222 5.07536 8.01222C4.98982 8.01222 4.76765 7.83401 4.40886 7.4776C4.05007 7.12118 3.87067 6.9002 3.87067 6.81466C3.87067 6.75289 3.89443 6.69823 3.94196 6.65071C4.31263 6.28479 4.77834 5.99728 5.3391 5.78819C5.89986 5.57909 6.4535 5.47454 7 5.47454C7.5465 5.47454 8.10014 5.57909 8.6609 5.78819C9.22166 5.99728 9.68737 6.28479 10.058 6.65071C10.1056 6.69823 10.1293 6.75289 10.1293 6.81466C10.1293 6.9002 9.94993 7.12118 9.59114 7.4776C9.23235 7.83401 9.01018 8.01222 8.92464 8.01222ZM10.8707 6.07332C10.8184 6.07332 10.7637 6.05431 10.7067 6.01629C10.0604 5.51731 9.46164 5.1502 8.91039 4.91497C8.35913 4.67974 7.72234 4.56212 7 4.56212C6.59606 4.56212 6.19094 4.61439 5.78462 4.71894C5.37831 4.82349 5.02427 4.94942 4.72251 5.09674C4.42074 5.24406 4.15105 5.39138 3.91344 5.5387C3.67583 5.68601 3.48812 5.81195 3.35031 5.9165C3.21249 6.02105 3.13883 6.07332 3.12933 6.07332C3.04854 6.07332 2.82994 5.89511 2.47352 5.5387C2.11711 5.18228 1.9389 4.9613 1.9389 4.87576C1.9389 4.81874 1.96266 4.76646 2.01018 4.71894C2.63747 4.09165 3.39783 3.60455 4.29124 3.25764C5.18466 2.91073 6.08758 2.73727 7 2.73727C7.91242 2.73727 8.81534 2.91073 9.70876 3.25764C10.6022 3.60455 11.3625 4.09165 11.9898 4.71894C12.0373 4.76646 12.0611 4.81874 12.0611 4.87576C12.0611 4.9613 11.8829 5.18228 11.5265 5.5387C11.1701 5.89511 10.9515 6.07332 10.8707 6.07332ZM12.8024 4.14155C12.7502 4.14155 12.6979 4.12016 12.6456 4.07739C11.795 3.3313 10.9123 2.76935 9.99745 2.39155C9.08265 2.01375 8.0835 1.82485 7 1.82485C5.9165 1.82485 4.91735 2.01375 4.00255 2.39155C3.08775 2.76935 2.20502 3.3313 1.35438 4.07739C1.3021 4.12016 1.24983 4.14155 1.19756 4.14155C1.11677 4.14155 0.896979 3.96334 0.538187 3.60692C0.179396 3.25051 0 3.02953 0 2.94399C0 2.88221 0.023761 2.82756 0.0712831 2.78004C0.959946 1.89613 2.01731 1.21181 3.24338 0.727088C4.46945 0.242363 5.72166 0 7 0C8.27834 0 9.53055 0.242363 10.7566 0.727088C11.9827 1.21181 13.0401 1.89613 13.9287 2.78004C13.9762 2.82756 14 2.88221 14 2.94399C14 3.02953 13.8206 3.25051 13.4618 3.60692C13.103 3.96334 12.8832 4.14155 12.8024 4.14155Z" fill="white"/>
</svg>
